<?xml version="1.0" encoding="utf-8"?><svg xmlns="http://www.w3.org/2000/svg" xmlns:xlink="http://www.w3.org/1999/xlink"><symbol viewBox="0 0 24 18" id="burger" xmlns="http://www.w3.org/2000/svg"><path d="M0 16h24v2H0zm0-8h24v2H0zm0-8h24v2H0z"/></symbol><symbol viewBox="0 0 18 18" id="burger-close" xmlns="http://www.w3.org/2000/svg"><path d="M16.7 0L9 7.7 1.3 0 0 1.3 7.7 9 0 16.7 1.3 18 9 10.3l7.7 7.7 1.3-1.3L10.3 9 18 1.3z"/></symbol><symbol viewBox="0 0 367.6 512" id="cat" xmlns="http://www.w3.org/2000/svg"><defs><path id="ca" d="M0 0h367.6v512H0z"/></defs><clipPath id="cb"><use xlink:href="#ca" overflow="visible"/></clipPath><path clip-path="url(#cb)" d="M79.6 0h2c3.6 1.9 5.7 5 7.5 8.4 3.1 5.8 5.3 11.9 6.9 18.2 1.1 4.3 3.4 6.3 7.8 7.1 12.3 2.1 21.2 9.1 27.5 19.8 3.9 6.6 6.9 13.7 9.7 20.8 7.5 19.4 13.2 39.5 20.2 59.1 3.3 9.4 3.5 9.2 13.5 9.3 11.9.1 11.1-1.9 11.2 11.3.1 4.2-1.3 6.3-5.7 6.1-1.4-.1-3.4-.7-3.9 1.1-.4 1.5 1.3 2.6 2.3 3.6 6.3 6.6 14.1 10.5 22.8 12.8 10 2.7 20.1 4.8 29.9 8.1 24.9 8.4 48 20.1 65.9 40 11 12.1 18.5 26.5 24.9 41.4 19.5 45.4 28.6 93.5 35.9 142 3.4 22.7 5.8 45.6 7.7 68.5.9 11.4 2.1 22.9 2 34.4h-175c-.6-2.4.4-4.6 1.2-6.8 3.6-9.3 10.9-14.1 20.1-16.2 3.6-.8 4.1-1.9 1.8-4.8-3.8-4.9-6.4-10.5-8.4-16.4-8.6-25.4-11.9-51.8-16-78.1-3.2-20.1-7.9-39.5-18.3-57.2-7.7-13.1-17.3-24.4-29.4-33.6-4.4-3.3-4.5-3.3-5.2 2.3-.5 3.8-.6 7.6-.9 11.4-1.5 25-1.4 49.9.9 74.8 1.8 19.4 2.5 38.8.8 58.3-1.9 22.4-6.1 44.5-11.7 66.2h-70c1.7-11.6 11-21.2 22.3-23.4 6.7-1.3 13.3-.4 19.8 1.1 3.1.7 4.5.2 4.7-3.4 2.1-28.1.7-56-5-83.5-6.6-31.8-12.8-63.7-16.1-96-1.4-13.4-5.4-25.5-11.9-37.1-6.3-11.2-11.7-22.8-17.9-34.1-4.9-8.9-5.8-17.9-2.2-27.4 1.4-3.7 2.8-7.5 4.5-11.1 5-10.3 10.4-20.5 15.3-30.9 2.6-5.4 2-5.9-3.7-6.1-8.6-.2-8.6-.2-8.7-8.7v-3.5c-.1-3.6 1.3-5.6 5.3-5.3 2.7.2 5.3 0 8 0 3.6.1 4.7-1.5 3.8-5-3-12-14.6-21.9-27-23.4-11.8-1.4-23.3.2-34.7 2.3-3.4.6-5.3-.1-6.6-3.4-2.1-5.3-4.4-10.4-6.8-15.6-1-2.2-1-4.1.5-6C17.9 69.7 36.1 49.7 60.9 37c2.6-1.3 4.1-3 4.7-5.9 1.6-7.5 3.4-14.9 6.7-21.9 1.6-3.7 3.6-7.1 7.3-9.2"/></symbol><symbol viewBox="0 0 55.5 60" id="gift" xmlns="http://www.w3.org/2000/svg"><path d="M52.3 12.2h-7c.5-.7.8-1.4 1.1-2.2.6-2 .4-4.1-.6-5.9S43.2 1 41.2.4s-4.1-.4-5.9.6c-3.6 2-6.2 6.1-7.6 9-1.4-2.9-4-7.1-7.6-9A7.8 7.8 0 0 0 9.6 4.1c-1.4 2.7-1.2 5.8.5 8.1h-7c-1.7 0-3.1 1.4-3.1 3.1v9.4c0 1.7 1.4 3.1 3.1 3.1H4v26.1a6 6 0 0 0 6 6h35.5a6 6 0 0 0 6-6V27.8h.8c1.7 0 3.1-1.4 3.1-3.1v-9.4c.1-1.7-1.3-3.1-3.1-3.1zM36.5 3c1.3-.7 2.7-.8 4.1-.4 1.3.4 2.4 1.3 3.1 2.6s.8 2.7.4 4.1a5.3 5.3 0 0 1-2.2 2.9H29.4C30.5 9.6 33 5 36.5 3zM11.7 5.2C13.2 2.6 16.4 1.6 19 3c3.5 1.9 6 6.6 7.1 9.1H13.5c-2.3-1.4-3.1-4.5-1.8-6.9zm14.8 22.6v13.7H6.4V27.8h20.1zM6.4 53.9v-10h20.2v13.7H10c-2 0-3.6-1.7-3.6-3.7zm39.1 3.7H28.9V43.9h20.2v10c0 2-1.6 3.7-3.6 3.7zm3.6-16.1H28.9V27.8h20.2v13.7zm4-16.8c0 .4-.3.7-.7.7H3.2c-.4 0-.7-.3-.7-.7v-9.4c0-.4.3-.7.7-.7h49.2c.4 0 .7.3.7.7v9.4z"/></symbol><symbol viewBox="0 0 100.5 18.1" id="logo-text" xmlns="http://www.w3.org/2000/svg"><path d="M1.2 16.6c-.8-1-1.2-2.5-1.2-4.4V5.9C0 4 .4 2.5 1.2 1.5 2 .5 3.4 0 5.4 0c1.9 0 3.2.4 4 1.3.8.9 1.2 2.1 1.2 3.8v1.5h-4V4.8c0-.7-.1-1.2-.2-1.6-.1-.3-.5-.5-1-.5s-1 .2-1.1.6c-.2.4-.3.9-.3 1.6v8.3c0 .7.1 1.2.3 1.6.2.4.5.6 1.1.6.5 0 .9-.2 1-.6.2-.4.2-.9.2-1.6v-1.8h3.9v1.5c0 1.6-.4 2.9-1.2 3.9-.8.9-2.1 1.4-4 1.4-1.9-.1-3.3-.6-4.1-1.6zM15.2.2h4.5L23 17.8h-3.6l-.6-3.7h-2.6l-.6 3.7h-3.7L15.2.2zm3.2 11.6l-.9-6.9-.9 6.9h1.8zm7.4-8.7h-2.7V.2h9.3v2.9h-2.7v14.7h-4V3.1zM39.5.2h6.9V2H42v5.8h3.6v1.7H42v6.4h4.5v1.8h-7V.2zm9 0h1.7l5.1 11.7V.2h2.1v17.6h-1.6l-5.1-12v12h-2.1V.2zm11.3 0h6.9V2h-4.4v5.8h3.6v1.7h-3.6v6.4h4.5v1.8h-7V.2zm9 0h3.6c1.8 0 3.1.4 4 1.1s1.3 1.9 1.3 3.6c0 2.3-.7 3.6-2.2 4.1l2.5 8.8h-2.4l-2.3-8.3h-1.9v8.3h-2.5V.2zm3.4 7.6c1.1 0 1.8-.2 2.3-.6.5-.4.7-1.2.7-2.3 0-.7-.1-1.3-.2-1.7s-.4-.7-.9-.9c-.4-.2-1-.3-1.7-.3h-1.1v5.8h.9zm8.6 8.7c-.7-1-1.1-2.5-1.1-4.5V6.2c0-1.4.1-2.5.4-3.4.3-.9.8-1.5 1.5-2s1.7-.7 2.9-.7c1.6 0 2.8.4 3.6 1.2.7.8 1.1 2.1 1.1 3.9v.7h-2.3v-.6c0-.8-.1-1.5-.2-1.9-.1-.5-.3-.8-.7-1-.3-.3-.8-.4-1.4-.4-.7 0-1.2.2-1.5.5-.3.3-.6.7-.7 1.2-.1.5-.1 1.2-.1 2.1v6.5c0 1.3.2 2.3.5 2.9.3.6 1 .9 1.9.9.9 0 1.6-.3 1.9-1 .3-.6.5-1.7.5-3.1v-1.2h-2.3V9.1h4.5v8.7h-1.6l-.2-2c-.6 1.5-1.6 2.2-3.2 2.2s-2.8-.5-3.5-1.5zm13.5-4.9L90.4.2h2.3l2.7 8.5L98.1.2h2.3l-3.8 11.4v6.2h-2.4v-6.2z"/></symbol><symbol viewBox="0 0 32 11" id="right-arrow" xmlns="http://www.w3.org/2000/svg"><path d="M25.4 0L32 5.5 25.4 11V6.6H0V4.4h25.4z"/></symbol><symbol viewBox="0 0 21.1 15.5" id="tick" xmlns="http://www.w3.org/2000/svg"><path d="M20.1 0L7.7 13.3 1 6.1 0 7.2l7.7 8.3L21 1.2l.1-.1z"/></symbol><symbol viewBox="0 0 454.1 188.4" id="tiger" xmlns="http://www.w3.org/2000/svg"><defs><path id="ha" d="M0 0h454.1v188.4H0z"/></defs><clipPath id="hb"><use xlink:href="#ha" overflow="visible"/></clipPath><path clip-path="url(#hb)" d="M417 19.6c4.1-6.3 9.2-11.4 15.4-15.6 3.4-2.2 5.5-2.2 7.3 1.9 2.9 6.5 5.1 13.1 3.1 20.3-.7 2.6-.2 4.9 1.4 7 1.9 2.5 3.6 5.2 5.3 7.9 4.3 6.5 6 13.3 3.1 20.8-1.3 3.3-1.4 6.8-.7 10.3.7 3.3.5 6.6 0 10-.9 5.4-3.7 9.2-9.2 10.7-4.3 1.1-8.1 3.1-10.9 6.7-.7.9-1.7 1.6-2.9 1.8-4 .5-14.2-8.5-14.1-12.6 0-.7 0-1.3.1-2 .2-12-.5-13.2-11.6-18-2.3-1-4.5-2.2-6.1-4.2-2.2-2.8-4.9-2.5-7.7-1.3s-4.7 3-4.3 6.5c.9 8.1 1.2 16.3 1.2 24.4 0 1 .3 2.1.8 2.8 10.5 15.1 14.4 32.9 19.7 50 4 13.1 11.5 20.2 25 21.1 2.1.2 4.3.7 6.4 1 6 1.1 9.7 4.9 11.4 10.6 2.2 7.1 1.1 8.6-6.3 8.6-7.3.1-14.7 0-22 .1-3 0-5.5-.5-7.7-2.7-3.3-3.2-7.5-4.9-11.6-6.7-4.5-2-8.7-4.5-11.4-8.7-3.8-5.8-8.9-10.4-13.6-15.2-9.6-9.7-19.5-19.1-28.5-29.4-6.5-7.4-10.8-15.6-10.7-25.6 0-3.2-.8-4.5-4-2.9-1 .5-2.2 1-3.3 1-9.5.2-14.2 5.8-17.6 14.1-3 7.2-7.2 13.9-10.8 20.9-2.4 4.6-3.9 9.5-3.9 14.8 0 7.9 1.9 10.8 9.3 13.4 4.6 1.7 9.1 3.4 11.6 8 2.9 5.2 2 6.9-3.8 6.9-7.7.1-15.3 0-23 .1-3 0-5-1-6.4-3.7-1.9-3.5-4.2-6.8-6.3-10.2-3.5-5.6-4.9-11.4-2.5-18.1 2-5.8 1.1-12 .3-17.8-1.3-8.8.1-16.6 5.8-23.4 1.9-2.2 2.1-3.5-1.3-4.1-14-2.6-27.2-7.6-40.1-13.7-.2-.1-.3-.1-.5-.2-10.8-4.2-12.9-3.2-15.9 7.7-2.6 9.5-5.4 18.9-7.4 28.5-2.3 10.6.4 20.8 3.8 30.9 1.3 3.9 5.3 3.7 8.3 4.6 6.6 1.9 12.4 4.8 15.3 11.6 2.3 5.3 2 6.1-3.7 6.1-5.8 0-11.7-.3-17.5.1-5.5.4-9.6-1.7-14.1-4.8-16.3-10.9-20.9-27.1-22.2-45.2-.8-11.2-6.7-20-13.9-28.1-1.4-1.6-2.7-2.2-4.7-.9-7.1 4.5-15.1 7-22.9 9.9-16.4 6.2-30.6 15.5-41.3 29.5-3.9 5.1-6.6 10.8-7.6 17.2-.9 6 .8 8.6 6.6 10.3 6.5 1.9 9 5 9.8 11.6.3 2.8-.7 4.2-3.5 4.2-9.2 0-18.3 0-27.5-.1-2 0-3.3-1.2-4.5-2.7-4.4-5.4-6.4-11.6-6.6-18.5-.3-11.7 1.1-23.3 3.1-34.8 1.3-7.1 4.6-12.9 11.4-16.1 20-9.4 30.5-27.1 39.9-45.8 1.9-3.8.2-4.3-3-4-9.8.9-18.2 5.2-26 10.7C87.1 74.2 78 82.5 68.9 90.9c-9.9 9.2-21.1 15.6-34.9 16.6-23.4 1.6-35.1-11.9-34-34.3.4-7.7 3-14.7 8.2-20.5 4-4.5 9-6.9 15.2-5.1 5.2 1.5 6.5 4.1 4.4 8.9-.9 2-2.2 3.7-3.2 5.6-1.2 2.2-2.5 4.3-3.4 6.7-3.6 10 1.2 17.2 11.8 18.1 11.2 1 20.4-3.7 28.9-10.4 10.4-8 19.3-17.5 27.3-27.7 12.6-16.1 28.9-24.6 48.8-27.2 7.7-1 14.6-4.4 22-6.5 14.1-3.9 28.3-6.3 42.9-5.9 6.9.2 13.2-.9 19.8-3.6 16.5-6.7 33.8-6.7 51.1-3.2 13.5 2.7 26.9 6.1 40.4 9.3 7.6 1.8 15.9 1.2 23.7-.5 15-3.3 30-6.3 45.4-6.6 10.1-.2 19.9 1.5 29.2 5.7 6.4 2.9 6.5 2.9 4.5 9.3"/></symbol></svg>