<?xml version="1.0" encoding="utf-8"?>
<!-- Generator: Adobe Illustrator 18.0.0, SVG Export Plug-In . SVG Version: 6.00 Build 0)  -->
<!DOCTYPE svg PUBLIC "-//W3C//DTD SVG 1.1//EN" "http://www.w3.org/Graphics/SVG/1.1/DTD/svg11.dtd">
<svg version="1.1" id="Layer_1" xmlns="http://www.w3.org/2000/svg" xmlns:xlink="http://www.w3.org/1999/xlink" x="0px" y="0px"
	 viewBox="0 0 367.6 512" enable-background="new 0 0 367.6 512" xml:space="preserve">
<g>
	<defs>
		<rect id="SVGID_1_" width="367.6" height="512"/>
	</defs>
	<clipPath id="SVGID_2_">
		<use xlink:href="#SVGID_1_"  overflow="visible"/>
	</clipPath>
	<path clip-path="url(#SVGID_2_)" d="M79.6,0h2c3.6,1.9,5.7,5,7.5,8.4c3.1,5.8,5.3,11.9,6.9,18.2c1.1,4.3,3.4,6.3,7.8,7.1
		c12.3,2.1,21.2,9.1,27.5,19.8c3.9,6.6,6.9,13.7,9.7,20.8c7.5,19.4,13.2,39.5,20.2,59.1c3.3,9.4,3.5,9.2,13.5,9.3
		c11.9,0.1,11.1-1.9,11.2,11.3c0.1,4.2-1.3,6.3-5.7,6.1c-1.4-0.1-3.4-0.7-3.9,1.1c-0.4,1.5,1.3,2.6,2.3,3.6
		c6.3,6.6,14.1,10.5,22.8,12.8c10,2.7,20.1,4.8,29.9,8.1c24.9,8.4,48,20.1,65.9,40c11,12.1,18.5,26.5,24.9,41.4
		c19.5,45.4,28.6,93.5,35.9,142c3.4,22.7,5.8,45.6,7.7,68.5c0.9,11.4,2.1,22.9,2,34.4h-175c-0.6-2.4,0.4-4.6,1.2-6.8
		c3.6-9.3,10.9-14.1,20.1-16.2c3.6-0.8,4.1-1.9,1.8-4.8c-3.8-4.9-6.4-10.5-8.4-16.4c-8.6-25.4-11.9-51.8-16-78.1
		c-3.2-20.1-7.9-39.5-18.3-57.2c-7.7-13.1-17.3-24.4-29.4-33.6c-4.4-3.3-4.5-3.3-5.2,2.3c-0.5,3.8-0.6,7.6-0.9,11.4
		c-1.5,25-1.4,49.9,0.9,74.8c1.8,19.4,2.5,38.8,0.8,58.3c-1.9,22.4-6.1,44.5-11.7,66.2h-70c1.7-11.6,11-21.2,22.3-23.4
		c6.7-1.3,13.3-0.4,19.8,1.1c3.1,0.7,4.5,0.2,4.7-3.4c2.1-28.1,0.7-56-5-83.5c-6.6-31.8-12.8-63.7-16.1-96
		c-1.4-13.4-5.4-25.5-11.9-37.1c-6.3-11.2-11.7-22.8-17.9-34.1c-4.9-8.9-5.8-17.9-2.2-27.4c1.4-3.7,2.8-7.5,4.5-11.1
		c5-10.3,10.4-20.5,15.3-30.9c2.6-5.4,2-5.9-3.7-6.1c-8.6-0.2-8.6-0.2-8.7-8.7c0-1.2,0-2.3,0-3.5c-0.1-3.6,1.3-5.6,5.3-5.3
		c2.7,0.2,5.3,0,8,0c3.6,0.1,4.7-1.5,3.8-5c-3-12-14.6-21.9-27-23.4c-11.8-1.4-23.3,0.2-34.7,2.3c-3.4,0.6-5.3-0.1-6.6-3.4
		c-2.1-5.3-4.4-10.4-6.8-15.6c-1-2.2-1-4.1,0.5-6c16.7-21.7,34.9-41.7,59.7-54.4c2.6-1.3,4.1-3,4.7-5.9c1.6-7.5,3.4-14.9,6.7-21.9
		C73.9,5.5,75.9,2.1,79.6,0"/>
</g>
</svg>
