<svg xmlns="http://www.w3.org/2000/svg" viewBox="0 0 70 57">
    <path d="M56.8 20.1l.2.2c-.1 0-.2-.1-.2-.2zm-.4-.4c.1.1.2.2.2.3 0-.1-.1-.2-.2-.3zM34.8 43.5l2.5-.6 3.8-1-3.8 1-2.5.6zm11.9-19.3c-.1.1-.1.2-.2.2l.2-.2zm-26.1-.3h-.2c.1-.1.2 0 .2 0 1.4.4 5.2 1.8 5.2 1.8l-5.2-1.8zm37.9 1c.3-.5.5-1.2.5-1.2-.1-.3-.3-.5-.4-.8.1.2.3.5.4.8 0 0-.2.7-.5 1.2zm-43.6 3.4l.5 1.4c0 .1-.1.2-.2.3.1-.1.2-.1.2-.3-.1-.4-.5-1.4-.5-1.4s0-1.8 1-3.1c-1.1 1.3-1 3.1-1 3.1zm.1-4.9s1.2-2.3 2.1-2.9c0 0 .1-.3 1.2-.2.7.1 3.3.2 5.2.3v-.1c.9.1 1.7.1 2 .1l.1.1h.1l.1-2.3c6.7-.9 13.4-1.4 20.2-1.3 0 .6 0 1.2-.1 1.8 0 0 .7-.3 1.8-.7 1.6-.6 4.1-1.3 6.3-1.2 0 0 .4 0 .8.4.2.3 1 1.3 1.7 2.2 0 0 0-.1-.1-.1 1.1.5 2.1 1.1 3.1 1.7-2.8-6.3-8-11-14-13.3.3 2.7.5 6 .4 9.3-6.7 0-13.5.4-20.2 1.3l.2-10.2c-7.5 3.3-12.6 9.8-14.5 17.2 1.2-.8 2.5-1.5 3.6-2.1zm42-2.9c0 .1.1.1.1.1l-.1-.1zm-44.3 9.2c.1.3.3.5.6.5-.3 0-.4-.2-.6-.5zm29.6 18.7s-2.5 2-6.8 4.1l.3 4.5c1.8 0 3.5-.1 5.3-.5v-.8l1.2-7.3c.6-.5 1.2-1.2 1.7-1.9-.5.7-1.1 1.4-1.7 1.9zm-11.7 1.2l-1.1-5-1-5.8c-.5-.1-2.5-.2-4.4 1.3-2.2 1.7-2.6 2.4-2.6 2.4l-.5-3.8s-.1-2.3-2.3-2.1c-2.1.1-5.6 1.1-5.6 1.1s.2-2.6-2.4-4c.2 2.6.8 5.2 1.9 7.7 3.6 8.5 11.3 14.1 19.8 15.4-.6-2.1-1.2-4.4-1.7-6.8 0-.1-.1-.2-.1-.4zm27.8-12.3c-8.1-3.7-7.8 3.4-7.8 3.4-.8-1.2-3.4-1.7-5.2-1.9v-2 3.8l-2.3.6 2.3-.6-.2 4c0 .1 0 .3-.1.4-.6 4.2-1.7 8.8-2.4 10-.2.4-.5.9-.8 1.1 1.4-.3 2.7-.8 4-1.3 9.9-4.1 15.9-13.9 15.7-24-3 2.5-3.2 6.5-3.2 6.5zm-13-4.1v.6-.6zm0-.8v.5-.5zM58 25.7c-.2.1-.4.2-.7.2.2 0 .5-.1.7-.2zm-12.6 8.4v.7-.7zm12.8-8.6s-.1.1-.2.1c.1 0 .1 0 .2-.1zM45.4 35v.8-.8zm-32.3-7.9c-.1 0-.1 0 0 0-.1 0-.1 0 0 0zm32.3 8.8v.8-.8z" fill="#fdc305"/>
    <path d="M59.3 21.1l-3.1-1.7s0 .1.1.1c0 .1.1.1.1.2.1.1.2.2.2.3s.1.1.1.2l.3.3c0 .1.1.1.1.1v.1c.3.3.9 1.3 1.5 2.3.1.2.3.5.4.8 0 0-.2.6-.5 1.2-.1.2-.3.5-.4.6 0 0-.1.1-.2.1-.2.1-.4.2-.7.2s-.6-.3-.6-.9l-.2-2.2s-1.9-3.4-2.6-3.5c-.7 0-5.2 3-6.9 4.6l-.3.3c-.1.1-.1.2-.2.2-1 1-1.2 1.1-1.2 3.2l.1 4.8v6.5c1.8.2 4.4.7 5.2 1.9 0 0-.3-7.1 7.8-3.4 0 0 .1-4 3.1-6.2 1.7-1.2 4.3-1.9 8.3-1 .2-.1-4.1-5.3-10.4-9.1zm-13.6-4c.1-3.3-.1-6.6-.4-9.3l-1-7.1s-.1-1.3-.9-.2c-.7 1.1-1.2 3.9-1.2 3.9-7.4-.4-12.8.3-12.8.3-.8-2.7-2.2-3.9-2.9-3.6s-.7 3.3-.7 3.3l-.1 3.9-.2 10.2c6.7-1 13.5-1.4 20.2-1.4zm-12.4-1.3c-.4 0-.9-.1-1-.3h1.2s-1.4-1-1.7-1.6c0-.1 1 .7 1.4.9s.6.4.6.6c.1.3-.2.4-.5.4zm6.3-.4c-.1.1-.9.2-1.2.3-.4 0-.2-.2-.2-.3s1.1-1.3 1.1-1.3c.1-.1.1 0 .1 0l-.8 1.3c.3-.1.8-.1 1-.1.1 0 .2.1 0 .1z" fill="#f06351"/>
    <path fill="#e55645" d="M45.4 40.7l-2.3.6c-.6.1-1.2.3-2 .5l-3.8 1c-.9.2-1.7.5-2.5.6l-5.3 1.1 1.1 5c0 .1 0 .2.1.3.4.2.8.5 1.1.7.4.2.8.4 1.2.7l2.4 1.2c4.4-2.2 6.8-4.1 6.8-4.1v.1c.6-.6 1.2-1.2 1.7-1.9l1.2-1.8c.2-1 .3-2.4.3-4z"/>
    <path d="M33.3 14.9c-.4-.2-1.5-1-1.4-.9.3.5 1.7 1.6 1.7 1.6h-1.2c0 .1.6.3 1 .3s.6-.2.6-.3c-.1-.3-.4-.4-.7-.7zm6.2.4c-.2 0-.7 0-1 .1l.8-1.3s0-.1-.1 0l-1.1 1.3c0 .1-.2.3.2.3s1.1-.2 1.2-.3c.3 0 .2-.1 0-.1zm-3.3 4.9s.8-.4 1.1-1c.3-.7 0-.9-.4-1-.5-.1-1.3 0-1.7.3-.4.4-.3.7-.1 1 .2.2.8.6 1.1.7z"/>
    <path fill="#f06351" d="M34.2 22.6c-1 0-1.8-.8-2.2-1.2.1.6.9 4 2.5 4.6 1.8.6 2.1-.7 2.2-1.1 0-.3 0-1.9-.7-3.1-.1-.1-.1-.1-.1-.2-.5.7-1.1 1-1.7 1z"/>
    <path d="M32 21.4c.4.4 1.2 1.2 2.1 1.2.6 0 1.2-.3 1.7-.9 0 .1.1.1.1.2.2.3.5.5 1 .6.6 0 1.2-.4 1.9-1.4v-.2h-.2c-.6.9-1.1 1.3-1.6 1.3-.6 0-1-.8-1-.8l-.1-.2-.1.2c-.5.7-1 1-1.6 1C33 22.3 32 21 32 21c0-.1-.1-.1-.2 0-.1 0-.1.1 0 .2l.2.2z"/>
    <path d="M36.9 27.8l2-1.8.2-1.1-2.2 2.9zm.1 3.8l2-.8-4.1 5.4.8-4-2 .8 3.6-4.7c-.6.4-1.1.7-1.5.8l-4.2 5.4 3.1-1.3-1.1 5.6 7.5-9.7-3.1 1.3.6-3c-.3.2-.6.4-.8.6l-.8 3.6z" fill="#111"/>
    <path d="M35.4 29.3c.1 0 .3-.1.4-.1l1.5-.8c.2-.1.3-.2.5-.3.3-.2.5-.4.8-.6.6-.5 1.3-.9 1.9-1.4 1.8-1.4 4.8-4.5 5.9-5.9.6-.7.9-1.4 1.1-2l-1.8.7s-2.5 2.2-5.1 5.2L38.8 26c-.7.7-1.4 1.3-2 1.8L35.3 29c-.2-.5-1.6-1.5-1.6-1.5l-5.2-3.8c-1.2-.9-2.3-2.1-3.1-2.9l-.1-.1c-.3 0-1.1-.1-2-.1v.1c4.8 6.8 12.1 8.6 12.1 8.6zm-22.3 8.3s3.5-1 5.6-1.1 2.3 2.1 2.3 2.1l.5 3.8s.5-.6 2.6-2.4c1.9-1.5 3.9-1.4 4.4-1.3l-2.7-13.1-5.2-1.8h-.2c-1.3-.4-2.2-.6-3.9.7-.3.2-.5.4-.7.7-1 1.3-1 3.1-1 3.1l.5 1.4c0 .1-.1.2-.2.3-.4.2-1.2.2-1.8.2-.3 0-.5-.2-.6-.5-.2-.6-.1-1.5.3-2.6.6-1.7 1.9-3.7 1.9-3.7l-3.6 2.1C6.1 28.6 0 32.8 0 32.8s2.9-.3 8.2.2c1.1.1 1.9.4 2.5.7 2.6 1.3 2.4 3.9 2.4 3.9z" fill="#f06351"/>
</svg>
